<svg xmlns="http://www.w3.org/2000/svg" viewBox="-1 22 202 76" width="202" height="76">
  <path d="M33.76 80L15.68 80L1.44 24L12.32 24L24.16 73.20L25.28 73.20L37.12 24L48 24L33.76 80Z" fill="#FFFFFF"/>
  <path d="M80.32 96L55.36 96L55.36 87.20L76.96 87.20Q79.20 87.20 79.20 84.80L79.20 84.80L79.20 74.80L77.76 74.80Q77.12 76.16 75.76 77.52Q74.40 78.88 72.08 79.76Q69.76 80.64 66.16 80.64L66.16 80.64Q61.52 80.64 58.04 78.52Q54.56 76.40 52.64 72.64Q50.72 68.88 50.72 64L50.72 64L50.72 40.32L60.80 40.32L60.80 63.20Q60.80 67.68 63 69.92Q65.20 72.16 69.28 72.16L69.28 72.16Q73.92 72.16 76.48 69.08Q79.04 66 79.04 60.48L79.04 60.48L79.04 40.32L89.12 40.32L89.12 87.04Q89.12 91.12 86.72 93.56Q84.32 96 80.32 96L80.32 96Z" fill="#00FF85"/>
  <path d="M106.40 80L96.32 80L96.32 40.32L106.24 40.32L106.24 45.52L107.68 45.52Q108.64 43.44 111.28 41.56Q113.92 39.68 119.28 39.68L119.28 39.68Q123.92 39.68 127.40 41.80Q130.88 43.92 132.80 47.64Q134.72 51.36 134.72 56.32L134.72 56.32L134.72 80L124.64 80L124.64 57.12Q124.64 52.64 122.44 50.40Q120.24 48.16 116.16 48.16L116.16 48.16Q111.52 48.16 108.96 51.24Q106.40 54.32 106.40 59.84L106.40 59.84L106.40 80Z" fill="#FFFFFF"/>
  <path d="M151.68 80L141.60 80L141.60 24L151.68 24L151.68 80Z" fill="#FFFFFF"/>
  <path d="M177.76 81.12L177.76 81.12Q171.84 81.12 167.12 78.72Q162.40 76.32 159.68 71.76Q156.96 67.20 156.96 60.80L156.96 60.80L156.96 59.52Q156.96 53.12 159.68 48.56Q162.40 44 167.12 41.60Q171.84 39.20 177.76 39.20L177.76 39.20Q183.68 39.20 188.40 41.60Q193.12 44 195.84 48.56Q198.56 53.12 198.56 59.52L198.56 59.52L198.56 60.80Q198.56 67.20 195.84 71.76Q193.12 76.32 188.40 78.72Q183.68 81.12 177.76 81.12ZM177.76 72.16L177.76 72.16Q182.40 72.16 185.44 69.16Q188.48 66.16 188.48 60.56L188.48 60.56L188.48 59.76Q188.48 54.16 185.48 51.16Q182.48 48.16 177.76 48.16L177.76 48.16Q173.12 48.16 170.08 51.16Q167.04 54.16 167.04 59.76L167.04 59.76L167.04 60.56Q167.04 66.16 170.08 69.16Q173.12 72.16 177.76 72.16Z" fill="#FFFFFF"/>
</svg>
